<!-- <?xml version="1.0" encoding="UTF-8"?>
<!DOCTYPE svg PUBLIC "-//W3C//DTD SVG 1.1//EN" "http://www.w3.org/Graphics/SVG/1.1/DTD/svg11.dtd"> -->

<svg version="1.0" xmlns="http://www.w3.org/2000/svg" width="35pt" height="25pt" viewBox="0 0 376 278" preserveAspectRatio="xMidYMid meet" class="element-zipcode">
    <g transform="translate(0,278) scale(0.1,-0.1)" fill="#717171" stroke="none">
        <path d="M2389 2662 c-63 -15 -81 -24 -107 -53 -17 -18 -55 -50 -85 -69 -55
                            -35 -87 -80 -87 -122 0 -11 -12 -56 -26 -100 -23 -69 -26 -90 -21 -166 3 -48
                            8 -96 11 -107 5 -17 -14 -30 -152 -98 l-157 -78 -150 66 c-82 37 -254 111
                            -382 166 l-231 99 -54 -25 c-29 -13 -80 -40 -113 -59 -33 -19 -80 -46 -105
                            -59 -215 -117 -535 -296 -577 -324 -29 -19 -55 -44 -58 -56 -5 -19 31 -190 90
                            -432 8 -33 38 -159 65 -280 28 -121 57 -247 65 -280 8 -33 38 -159 66 -280 28
                            -121 57 -226 64 -234 21 -22 66 -17 111 11 22 15 92 55 155 91 110 62 319 182
                            579 332 69 40 174 100 233 134 l109 63 51 -21 c47 -18 225 -81 332 -116 22 -8
                            112 -39 200 -70 296 -105 389 -135 411 -135 23 0 85 31 399 200 110 59 232
                            124 270 145 39 21 131 69 205 108 224 117 225 117 228 162 l3 39 -395 394
                            -396 395 19 31 c11 17 31 63 46 101 24 64 26 79 22 170 -6 109 -29 189 -78
                            260 -45 66 -133 142 -204 175 -59 28 -80 32 -174 35 -77 3 -127 -1 -182 -13z
                            m313 -124 c79 -36 142 -98 181 -177 30 -61 32 -73 32 -166 0 -93 -2 -105 -33
                            -167 -38 -78 -100 -138 -182 -177 -47 -22 -68 -26 -150 -26 -82 0 -103 4 -152
                            27 -74 34 -152 112 -186 186 -24 50 -27 69 -27 157 0 87 3 107 26 155 46 98
                            121 166 222 202 75 27 193 21 269 -14z m-1439 -1094 c147 -293 267 -536 267
                            -541 0 -5 -15 -17 -32 -27 -18 -9 -94 -52 -168 -96 -74 -43 -193 -112 -263
                            -152 -70 -40 -147 -84 -171 -98 -23 -14 -82 -47 -130 -75 -48 -27 -108 -62
                            -134 -77 -109 -64 -99 -62 -107 -20 -3 20 -18 84 -31 142 -14 58 -34 143 -45
                            190 -11 47 -28 123 -39 170 -11 47 -33 144 -50 215 -17 72 -37 159 -45 195 -8
                            36 -29 124 -45 195 -17 72 -32 139 -35 150 -3 15 5 24 33 37 20 10 64 33 97
                            52 33 19 80 46 105 59 25 13 146 81 270 150 l225 125 16 -32 c8 -17 136 -270
                            282 -562z m182 423 c160 -68 297 -127 305 -130 9 -2 70 -85 136 -183 476 -709
                            614 -915 614 -919 0 -2 -51 14 -112 37 -62 22 -138 48 -168 58 -30 10 -127 43
                            -215 74 -88 31 -194 68 -235 83 -41 14 -81 28 -87 32 -7 4 -132 245 -279 536
                            -146 292 -271 536 -278 544 -9 12 -8 13 9 4 11 -6 151 -67 310 -136z m702 16
                            c6 -16 39 -93 73 -173 119 -278 138 -325 149 -355 5 -16 37 -95 71 -175 34
                            -80 64 -155 67 -167 5 -23 27 -29 50 -15 6 4 26 43 43 87 35 89 70 174 188
                            445 44 102 84 195 87 208 4 13 10 22 15 20 13 -5 673 -659 669 -662 -6 -6
                            -484 -263 -531 -286 -24 -11 -70 -35 -103 -53 -33 -18 -104 -56 -157 -85 l-97
                            -52 -109 163 c-60 89 -169 251 -243 360 -74 109 -150 222 -169 252 -19 30 -86
                            129 -147 222 l-113 168 58 29 c31 16 84 44 117 61 33 18 62 33 65 34 3 0 10
                            -11 17 -26z"></path>
    </g>
</svg>