<!-- <?xml version="1.0" encoding="UTF-8"?>
<!DOCTYPE svg PUBLIC "-//W3C//DTD SVG 1.1//EN" "http://www.w3.org/Graphics/SVG/1.1/DTD/svg11.dtd"> -->

<svg version="1.0" xmlns="http://www.w3.org/2000/svg" width="35pt" height="40pt" viewBox="0 0 598 394" preserveAspectRatio="xMidYMid meet" class="element-document">
    <g transform="translate(0,394) scale(0.1,-0.1)" fill="#cecece" stroke="none">
        <path d="M292 3769 c-69 -34 -104 -71 -138 -144 l-24 -50 0 -1590 0 -1590 24
                                                                    -50 c34 -73 69 -110 138 -144 l61 -31 2651 0 2651 0 50 24 c73 34 110 69 144
                                                                    138 l31 61 0 1592 0 1592 -31 61 c-34 69 -71 104 -144 138 l-50 24 -2651 0
                                                                    -2651 0 -61 -31z m5350 -162 c15 -10 35 -30 45 -45 17 -26 18 -95 18 -1577 0
                                                                    -1482 -1 -1551 -18 -1577 -10 -15 -30 -35 -45 -45 -26 -17 -130 -18 -2637 -18
                                                                    -2507 0 -2611 1 -2637 18 -15 10 -35 30 -45 45 -17 26 -18 96 -21 1532 -2 828
                                                                    0 1529 3 1558 5 42 13 60 40 87 19 18 47 36 62 38 15 2 1194 4 2618 3 2487 -1
                                                                    2591 -2 2617 -19z"></path>
        <path d="M4416 3423 c-25 -53 -197 -373 -201 -373 -15 0 -368 -63 -397 -71
                                                                    -21 -5 -38 -15 -38 -22 0 -7 68 -87 150 -177 112 -123 149 -170 146 -185 -3
                                                                    -11 -16 -101 -31 -200 -14 -99 -28 -191 -31 -205 -6 -25 -6 -25 -22 -5 -44 51
                                                                    -49 52 -97 5 -25 -25 -45 -54 -45 -65 0 -24 33 -57 102 -104 26 -17 50 -37 55
                                                                    -43 4 -7 -17 5 -47 27 -30 21 -68 48 -83 60 -33 23 -154 168 -170 203 -6 12
                                                                    -17 22 -24 22 -11 0 -13 -10 -7 -47 l7 -47 -37 22 c-21 12 -39 22 -42 22 -29
                                                                    0 74 -147 163 -231 107 -103 212 -163 387 -220 80 -26 91 -28 111 -15 15 10
                                                                    24 28 28 56 3 23 7 43 9 44 1 2 20 1 41 -2 34 -4 38 -7 36 -31 -3 -45 11 -81
                                                                    37 -87 27 -7 44 1 44 22 0 8 5 14 11 14 7 0 8 14 4 40 -6 37 -5 40 17 40 12 0
                                                                    33 3 46 6 20 6 22 3 22 -30 0 -85 30 -93 167 -45 222 79 361 185 511 391 23
                                                                    31 38 59 34 62 -4 2 -28 -8 -53 -24 l-46 -28 8 41 c11 55 11 57 0 57 -5 0 -24
                                                                    -21 -41 -47 -45 -67 -127 -158 -169 -189 l-36 -27 38 39 c20 22 37 48 37 58 0
                                                                    24 -60 96 -80 96 -10 0 -30 -16 -45 -36 -15 -19 -29 -34 -31 -32 -2 2 -15 106
                                                                    -30 231 l-27 227 64 68 c154 162 249 269 249 281 0 4 -60 18 -132 30 -293 51
                                                                    -320 56 -319 61 4 13 -199 395 -211 398 -8 1 -22 -14 -32 -35z m132 -459 c109
                                                                    -54 157 -178 118 -307 -16 -55 -61 -112 -88 -113 -11 -1 -25 -7 -31 -14 -10
                                                                    -10 -7 -10 11 -1 12 6 22 9 22 7 0 -8 -78 -46 -92 -45 -7 0 -5 3 4 7 10 4 -13
                                                                    7 -50 7 -44 1 -79 7 -102 18 l-35 18 25 -21 25 -21 -30 15 c-74 36 -128 130
                                                                    -128 221 0 188 188 310 351 229z m-170 -736 c3 -110 -1 -114 -72 -94 -31 9
                                                                    -61 14 -66 11 -6 -3 -10 -31 -10 -62 l0 -55 -27 7 c-57 13 -139 57 -161 86
                                                                    -20 25 -21 29 -7 29 10 0 87 36 172 80 86 44 159 80 162 80 4 0 8 -37 9 -82z
                                                                    m283 2 c87 -44 166 -80 175 -80 47 0 -104 -98 -178 -116 l-28 -6 0 62 0 62
                                                                    -27 -5 c-16 -3 -45 -10 -65 -15 -56 -15 -57 -13 -50 141 1 20 5 37 8 37 3 0
                                                                    77 -36 165 -80z"></path>
        <path d="M929 3015 c-108 -35 -193 -123 -225 -232 -12 -41 -15 -84 -12 -162 3
                                                                    -90 8 -116 32 -167 34 -76 83 -124 161 -161 56 -26 69 -28 185 -28 111 1 132
                                                                    4 185 26 l60 25 3 92 c3 108 0 110 -76 53 -104 -78 -211 -77 -288 4 -50 51
                                                                    -69 117 -62 209 17 206 203 278 366 141 54 -46 62 -37 62 68 l0 93 -62 23
                                                                    c-81 30 -258 39 -329 16z"></path>
        <path d="M1450 2645 l0 -365 100 0 100 0 0 120 0 120 93 0 c120 0 175 18 238
                                                                    79 58 56 85 134 75 214 -9 63 -26 96 -70 135 -59 52 -114 62 -338 62 l-198 0
                                                                    0 -365z m332 215 c46 -13 68 -43 68 -91 0 -69 -57 -109 -157 -109 l-43 0 0
                                                                    105 0 105 48 0 c26 0 64 -5 84 -10z"></path>
        <path d="M2190 2645 l0 -365 95 0 95 0 0 155 0 155 155 0 155 0 0 70 0 70
                                                                    -155 0 -155 0 0 70 0 70 170 0 170 0 0 70 0 70 -265 0 -265 0 0 -365z"></path>
        <path d="M640 1270 l0 -140 2350 0 2350 0 0 140 0 140 -2350 0 -2350 0 0 -140z"></path>
        <path d="M640 830 l0 -140 505 0 505 0 0 140 0 140 -505 0 -505 0 0 -140z"></path>
        <path d="M1820 830 l0 -140 505 0 505 0 0 140 0 140 -505 0 -505 0 0 -140z"></path>
        <path d="M3010 830 l0 -140 505 0 505 0 0 140 0 140 -505 0 -505 0 0 -140z"></path>
        <path d="M4230 830 l0 -140 215 0 215 0 0 140 0 140 -215 0 -215 0 0 -140z"></path>
    </g>
</svg>