<!-- <?xml version="1.0" encoding="UTF-8"?>
<!DOCTYPE svg PUBLIC "-//W3C//DTD SVG 1.1//EN" "http://www.w3.org/Graphics/SVG/1.1/DTD/svg11.dtd"> -->

<svg version="1.0" xmlns="http://www.w3.org/2000/svg" width="35pt" height="35pt" viewBox="0 0 682 490" preserveAspectRatio="xMidYMid meet" class="element-device">
    <g transform="translate(0,490) scale(0.1,-0.1)" fill="#cecece" stroke="none">
        <path d="M1660 4819 c-38 -15 -97 -87 -110 -133 -7 -29 -10 -235 -8 -699 l3
                            -657 -418 0 c-474 0 -473 0 -500 -69 -16 -38 -17 -159 -17 -1404 0 -1348 0
                            -1362 20 -1395 39 -63 22 -62 743 -62 l654 0 -3 -58 c-3 -46 2 -69 19 -103 12
                            -24 28 -43 35 -41 7 1 15 -5 18 -13 16 -41 55 -44 515 -44 479 -1 485 0 528
                            55 51 64 51 68 51 515 l0 419 1718 2 1717 3 3 36 c2 27 -5 47 -34 90 -21 30
                            -40 56 -43 59 -3 3 -17 26 -30 53 -13 26 -28 47 -32 47 -5 0 -9 5 -9 10 0 11
                            -59 104 -84 133 -9 9 -14 17 -11 17 3 0 -11 25 -31 55 -20 30 -41 55 -46 55
                            -5 0 -8 6 -6 14 2 8 -18 42 -43 77 -25 35 -58 89 -75 119 -16 30 -46 71 -66
                            92 l-38 38 -128 0 c-79 0 -132 -4 -139 -11 -6 -6 -65 -13 -131 -16 -100 -5
                            -127 -3 -155 11 -32 15 -139 16 -1186 16 l-1151 0 0 54 c0 40 4 55 16 60 9 3
                            611 6 1339 6 1038 0 1330 3 1352 13 15 6 51 35 79 62 43 41 53 58 58 95 4 25
                            6 572 4 1215 l-3 1170 -40 42 c-22 22 -56 51 -75 62 l-35 21 -2100 -1 c-1355
                            0 -2109 -4 -2125 -10z m4150 -1319 l0 -1120 -1316 0 -1316 0 -40 34 c-74 64
                            -89 67 -283 64 l-175 -3 0 384 c0 383 0 385 -22 418 -13 18 -36 37 -52 43 -18
                            6 -189 10 -445 10 l-416 0 3 645 2 645 2030 0 2030 0 0 -1120z m-3340 -757 l0
                            -263 -140 0 c-122 0 -146 -3 -185 -21 -25 -12 -45 -25 -45 -30 0 -5 -6 -9 -13
                            -9 -20 0 -49 -58 -48 -98 0 -20 -5 -50 -11 -65 -8 -21 -8 -31 1 -40 13 -13 15
                            -63 2 -71 -5 -3 -7 -25 -5 -49 7 -62 10 -328 4 -332 -3 -2 -2 -48 2 -102 8
                            -125 8 -736 0 -828 l-7 -70 -609 0 -609 0 6 290 c4 159 7 664 7 1120 l0 830
                            825 0 825 0 0 -262z m-114 -486 c13 -25 33 -51 43 -57 12 -6 97 -10 206 -10
                            207 0 196 -4 249 80 20 32 25 35 78 36 31 1 62 -2 70 -7 19 -12 25 -1926 5
                            -1953 -13 -17 -37 -18 -402 -17 -214 1 -393 5 -397 9 -5 5 -7 443 -6 974 2
                            737 6 968 15 980 8 9 30 14 64 13 51 -1 52 -1 75 -48z m1702 -931 l364 -1 18
                            -23 c20 -24 18 -43 -9 -77 -16 -20 -28 -20 -524 -20 -279 0 -507 2 -507 5 0
                            18 44 89 67 107 26 21 35 22 128 17 55 -3 264 -7 463 -8z"></path>
    </g>
</svg>