<!-- <?xml version="1.0" encoding="UTF-8"?>
<!DOCTYPE svg PUBLIC "-//W3C//DTD SVG 1.1//EN" "http://www.w3.org/Graphics/SVG/1.1/DTD/svg11.dtd"> -->

<svg version="1.0" xmlns="http://www.w3.org/2000/svg" width="32pt" height="27pt" viewBox="0 0 456 452" preserveAspectRatio="xMidYMid meet" class="element-email">
    <g transform="translate(0,452) scale(0.1,-0.1)" fill="#000000" stroke="none">
        <path d="M2263 4472 c-18 -9 -103 -65 -190 -124 -234 -158 -485 -328 -691
                                        -468 -101 -69 -191 -129 -199 -135 -9 -5 -51 -33 -93 -62 l-77 -52 -189 -16
                                        c-266 -22 -289 -25 -323 -46 -57 -35 -66 -60 -68 -203 l-3 -129 -155 -105
                                        c-85 -57 -159 -112 -163 -121 -4 -9 -5 -659 -2 -1444 4 -1255 7 -1429 20
                                        -1437 18 -12 4259 -14 4277 -2 6 4 16 20 22 35 7 19 11 483 11 1444 l1 1417
                                        -43 38 c-24 21 -68 56 -98 77 -193 134 -276 194 -281 204 -3 7 -12 73 -18 147
                                        -7 74 -17 162 -23 195 -17 90 -55 144 -123 175 -43 19 -60 18 -410 -13 l-140
                                        -12 -115 78 c-63 43 -149 103 -190 132 -41 30 -138 97 -215 150 -77 53 -203
                                        141 -280 196 -152 108 -177 116 -242 81z m154 -195 c48 -35 129 -91 178 -125
                                        50 -33 122 -83 160 -111 111 -79 175 -124 251 -177 l71 -50 -376 -33 c-416
                                        -36 -529 -46 -1029 -91 -189 -17 -346 -29 -349 -27 -4 5 4 11 242 172 290 196
                                        481 325 610 414 72 49 135 90 142 90 7 1 52 -28 100 -62z m98 -860 c239 -65
                                        391 -254 403 -503 5 -110 -8 -179 -53 -273 -70 -146 -215 -251 -357 -259 -64
                                        -4 -69 -3 -99 27 l-31 32 -36 -35 c-54 -55 -115 -80 -192 -80 -159 1 -267 122
                                        -278 313 -6 106 9 180 53 269 67 133 165 204 291 210 75 4 115 -8 162 -51 l22
                                        -20 0 41 c0 30 4 42 18 46 30 8 163 28 166 25 1 -2 -3 -96 -10 -209 -18 -299
                                        -18 -409 1 -416 47 -18 128 59 182 171 79 167 45 364 -82 484 -97 91 -206 127
                                        -365 118 -304 -18 -518 -178 -581 -437 -18 -71 -17 -249 0 -320 43 -176 171
                                        -316 336 -366 235 -71 589 1 739 149 29 29 61 64 72 79 15 22 31 29 83 37 36
                                        6 66 9 68 7 8 -7 -41 -99 -78 -149 -129 -171 -378 -271 -679 -271 -110 0 -150
                                        4 -215 22 -276 79 -430 271 -467 581 -9 81 -8 112 5 194 57 332 287 541 662
                                        601 49 7 206 -3 260 -17z m1625 -348 c19 -14 72 -51 118 -83 l82 -58 0 -46 0
                                        -47 -77 -55 c-42 -30 -100 -72 -129 -92 l-51 -37 -12 127 c-7 70 -14 143 -16
                                        162 -2 19 -7 73 -11 120 l-7 85 34 -26 c19 -15 50 -37 69 -50z m-3686 -121 c4
                                        -68 9 -151 12 -185 3 -35 4 -63 1 -63 -2 0 -58 41 -123 90 -64 50 -121 90
                                        -126 90 -4 0 -8 9 -8 19 0 13 19 32 52 53 28 18 79 52 112 75 34 23 64 42 67
                                        42 4 1 9 -54 13 -121z m-209 -263 c33 -25 807 -602 1168 -870 185 -137 337
                                        -253 337 -256 0 -3 -75 -64 -167 -135 -92 -71 -201 -157 -243 -191 -41 -34
                                        -149 -119 -240 -189 -91 -70 -239 -186 -330 -259 -154 -122 -501 -394 -542
                                        -423 -17 -13 -18 31 -18 1162 0 647 4 1176 8 1176 4 0 17 -7 27 -15z m4095
                                        -1176 l0 -1151 -42 33 c-24 19 -85 67 -137 109 -51 41 -176 140 -276 220 -100
                                        80 -236 188 -301 241 -66 52 -155 123 -199 158 -44 35 -89 71 -100 80 -12 9
                                        -88 71 -170 136 -83 65 -180 143 -218 173 l-67 55 82 60 c46 33 157 115 248
                                        182 200 147 451 330 580 423 145 105 383 279 489 359 53 39 99 72 104 72 4 1
                                        7 -517 7 -1150z m-1808 108 c47 -37 92 -73 100 -80 7 -7 69 -57 138 -112 69
                                        -54 201 -160 294 -234 93 -75 228 -183 300 -241 282 -224 492 -392 516 -413
                                        23 -20 191 -155 333 -267 l57 -45 -990 -3 c-544 -1 -1436 -1 -1982 0 l-991 3
                                        74 60 c41 33 83 67 94 76 11 10 54 44 95 76 220 173 316 249 326 258 23 21 61
                                        51 104 84 63 49 172 134 260 205 41 34 80 64 85 69 6 4 21 16 34 27 13 11 60
                                        48 104 83 44 34 147 116 230 182 82 66 176 140 207 165 181 141 309 243 339
                                        269 l34 29 76 -62 c42 -34 115 -92 163 -129z"></path>
        <path d="M2162 2980 c-42 -26 -88 -99 -103 -165 -6 -29 -10 -93 -7 -146 7
                                        -147 49 -209 143 -209 59 0 98 21 135 72 43 59 63 136 62 242 0 105 -19 163
                                        -64 201 -38 32 -117 35 -166 5z"></path>
    </g>
</svg>