<?xml version="1.0" encoding="utf-8"?>
<!-- Generator: Adobe Illustrator 21.1.0, SVG Export Plug-In . SVG Version: 6.00 Build 0)  -->
<svg version="1.1" id="Layer_1" xmlns="http://www.w3.org/2000/svg" xmlns:xlink="http://www.w3.org/1999/xlink" x="0px" y="0px"
	 viewBox="0 0 150 150" style="enable-background:new 0 0 150 150;" xml:space="preserve">
<style type="text/css">
	.st0{fill:#FF8203;}
</style>
<g>
	<path class="st0" d="M123.6,101.5c0,4.7-1.4,8.4-3.9,10.6c-2.8,2.5-6.4,3.6-11.2,3.6H108l-1.1,8.1c-2.8-0.3-4.2-0.3-4.2-0.6
		l0.8-7.8c-2.8-0.3-5.9-0.6-8.4-1.1l-1.4-0.3l0.6-5.9c3.6,0.3,7,0.8,10.1,0.8l2-14.2c-4.7-1.1-8.1-2.8-10.3-4.7
		c-2-1.7-2.8-4.7-2.8-8.7c0-4.2,1.4-7.3,3.9-9.2c2.8-2.2,6.4-3.4,11.2-3.4h1.1l1.4-9.2h4.2l-1.1,9.5l8.9,1.4l-0.8,5.9
		c-3.1-0.3-6.1-0.6-8.9-0.8L111.3,89c4.7,1.1,7.8,2.8,9.8,4.5C122.8,95.1,123.6,97.9,123.6,101.5z M100.4,81.4
		c0,1.7,0.6,2.8,1.4,3.6c1.1,0.8,2.8,1.7,5.3,2.5l1.7-12.3C103.2,75.6,100.4,77.5,100.4,81.4z M116.3,102.1c0-1.7-0.6-2.8-1.4-3.6
		c-0.8-1.1-2.2-1.7-4.5-2.5l-1.7,13.4C113.8,109.1,116.3,106.6,116.3,102.1z"/>
	<g>
		<path class="st0" d="M46.5,1H23.6C11.1,1,1,11.1,1,23.6v22.9c0,4.2,3.4,7.5,7.5,7.5s7.5-3.4,7.5-7.5V23.6c0-4.2,3.4-7.5,7.5-7.5
			h22.9c4.2,0,7.5-3.4,7.5-7.5S50.7,1,46.5,1z"/>
		<path class="st0" d="M103.5,1h22.9C138.7,1,149,11.1,149,23.6v22.9c0,4.2-3.4,7.5-7.5,7.5c-4.2,0-7.5-3.4-7.5-7.5V23.6
			c0-4.2-3.4-7.5-7.5-7.5h-22.9c-4.2,0-7.5-3.4-7.5-7.5S99.3,1,103.5,1z"/>
		<path class="st0" d="M46.5,149H23.6C11.1,149,1,138.7,1,126.4v-22.9c0-4.2,3.4-7.5,7.5-7.5s7.5,3.4,7.5,7.5v22.9
			c0,4.2,3.4,7.5,7.5,7.5h22.9c4.2,0,7.5,3.4,7.5,7.5C54.1,145.6,50.7,149,46.5,149z"/>
		<path class="st0" d="M103.5,149h22.9c12.3,0,22.6-10.3,22.6-22.6v-22.9c0-4.2-3.4-7.5-7.5-7.5c-4.2,0-7.5,3.4-7.5,7.5v22.9
			c0,4.2-3.4,7.5-7.5,7.5h-22.9c-4.2,0-7.5,3.4-7.5,7.5C95.9,145.6,99.3,149,103.5,149z"/>
	</g>
</g>
</svg>
